0
SECTION
2
ENTITIES
0
LWPOLYLINE
8
0
100
AcDbPolyline
90
99
70
1
10
0.0000
20
75.0000
10
60.0000
20
75.0000
10
60.0000
20
37.5000
10
59.9875
20
36.0170
10
59.9499
20
34.5680
10
59.8872
20
33.1526
10
59.7993
20
31.7706
10
59.6861
20
30.4217
10
59.5477
20
29.1057
10
59.3838
20
27.8223
10
59.1944
20
26.5712
10
58.9796
20
25.3521
10
58.7391
20
24.1649
10
58.4731
20
23.0092
10
58.1812
20
21.8848
10
57.8637
20
20.7913
10
57.5202
20
19.7287
10
57.1509
20
18.6964
10
56.7556
20
17.6944
10
56.3342
20
16.7224
10
55.8867
20
15.7800
10
55.4131
20
14.8671
10
54.9132
20
13.9833
10
54.3870
20
13.1284
10
53.8345
20
12.3021
10
53.2555
20
11.5042
10
52.6500
20
10.7344
10
52.0180
20
9.9924
10
51.3593
20
9.2780
10
50.6739
20
8.5909
10
49.9618
20
7.9308
10
49.2229
20
7.2975
10
48.4570
20
6.6907
10
47.6642
20
6.1101
10
46.8444
20
5.5556
10
45.9976
20
5.0267
10
45.1235
20
4.5233
10
44.2223
20
4.0451
10
43.2938
20
3.5918
10
42.3379
20
3.1632
10
41.3546
20
2.7589
10
40.3438
20
2.3788
10
39.3056
20
2.0226
10
38.2397
20
1.6899
10
37.1461
20
1.3806
10
36.0248
20
1.0944
10
34.8757
20
0.8309
10
33.6987
20
0.5901
10
32.4938
20
0.3714
10
31.2609
20
0.1748
10
30.0000
20
0.0000
10
28.7391
20
0.1748
10
27.5062
20
0.3714
10
26.3013
20
0.5901
10
25.1243
20
0.8309
10
23.9752
20
1.0944
10
22.8539
20
1.3806
10
21.7603
20
1.6899
10
20.6944
20
2.0226
10
19.6562
20
2.3788
10
18.6454
20
2.7589
10
17.6621
20
3.1632
10
16.7062
20
3.5918
10
15.7777
20
4.0451
10
14.8765
20
4.5233
10
14.0024
20
5.0267
10
13.1556
20
5.5556
10
12.3358
20
6.1101
10
11.5430
20
6.6907
10
10.7771
20
7.2975
10
10.0382
20
7.9308
10
9.3261
20
8.5909
10
8.6407
20
9.2780
10
7.9820
20
9.9924
10
7.3500
20
10.7344
10
6.7445
20
11.5042
10
6.1655
20
12.3021
10
5.6130
20
13.1284
10
5.0868
20
13.9833
10
4.5869
20
14.8671
10
4.1133
20
15.7800
10
3.6658
20
16.7224
10
3.2444
20
17.6944
10
2.8491
20
18.6964
10
2.4798
20
19.7287
10
2.1363
20
20.7913
10
1.8187
20
21.8848
10
1.5269
20
23.0092
10
1.2609
20
24.1649
10
1.0204
20
25.3521
10
0.8056
20
26.5712
10
0.6162
20
27.8223
10
0.4523
20
29.1057
10
0.3139
20
30.4217
10
0.2007
20
31.7706
10
0.1128
20
33.1526
10
0.0501
20
34.5680
10
0.0125
20
36.0170
10
0.0000
20
37.5000
0
ENDSEC
0
EOF
